<svg xmlns="http://www.w3.org/2000/svg" viewBox="10 50 373 50">
  <path d="M 10 50 Q 15 73 13 94 M 25 94 L 24 50 M 44 50 L 24 50 M 44 72 L 25 72 M 45 95 L 25 94 M 75 52 C 60 52 55 54 56 72 C 66 76 74 74 78 96 M 57 96 L 78 96 M 98 53 L 98 97 M 121 69 C 122 47 103 55 98 53 C 98 62 98 71 98 80 C 105.6667 76.3333 116 77 121 69 M 132 55 L 132 98 L 152 98 L 152 98 M 176 56 L 164 98 M 193 99 L 176 56 M 170 76 L 184 76 M 210 100 L 209 70 M 198 56 L 209 70 M 219 57 L 209 70 M 240 58 L 230 100 M 256 99 L 240 58 M 236 74 L 246 74 M 274 100 L 282 60 M 296 77 L 282 60 M 310 62 L 296 77 M 317 98 L 310 62 M 328 99 L 339 62 M 355 99 L 339 62 M 335 77 L 346 77 M 366 100 L 365 62 M 382 78 C 378 65 372 62 365 62 C 364 70 363 88 382 79 M 383 98 L 366 78" stroke="#FF0000" stroke-width="1" fill="white"/>
</svg>